<?xml version="1.0" encoding="utf-8"?>
<!-- Generator: Adobe Illustrator 24.0.0, SVG Export Plug-In . SVG Version: 6.00 Build 0)  -->
<svg version="1.1" id="Capa_1" xmlns="http://www.w3.org/2000/svg" xmlns:xlink="http://www.w3.org/1999/xlink" x="0px" y="0px"
	 viewBox="0 0 325 79" style="enable-background:new 0 0 325 79;" xml:space="preserve">
<style type="text/css">
	.st0{fill:url(#SVGID_1_);}
	.st1{fill:#1E120D;}
	.st2{fill:none;}
</style>
<g>
	<linearGradient id="SVGID_1_" gradientUnits="userSpaceOnUse" x1="5.4748" y1="9.1425" x2="71.9443" y2="75.6121">
		<stop  offset="0" style="stop-color:#00C7E9"/>
		<stop  offset="1" style="stop-color:#74BF00"/>
	</linearGradient>
	<path class="st0" d="M72.89,33.75h-0.02V31.7H62.52v20.71c-0.27,5.16-4.54,9.28-9.76,9.28c-5.4,0-9.79-4.39-9.79-9.79v-6.76h0
		V33.69c0-11.1-9.03-20.14-20.14-20.14c-3.58,0-6.94,0.94-9.85,2.59v-4.22H2.7v21.77V49.8v1.42h10.35V33.69
		c0-5.4,4.39-9.79,9.79-9.79c5.4,0,9.79,4.39,9.79,9.79v11.4h0v6.82c0,11.1,9.03,20.14,20.14,20.14c3.54,0,6.87-0.92,9.76-2.53v5.17
		h10.36V52.56c0.01-0.22,0.02-0.44,0.02-0.66V33.75z"/>
	<path class="st1" d="M100.85,64.22c-6.12,0-11.11-4.98-11.11-11.11c0-6.12,4.98-11.11,11.11-11.11c4.95,0,9.14,3.25,10.58,7.72
		l9.82-3.47c-2.87-8.52-10.93-14.67-20.4-14.67c-11.87,0-21.52,9.66-21.52,21.52c0,11.87,9.66,21.52,21.52,21.52
		c8.87,0,16.51-5.4,19.8-13.08l-9.86-3.48C108.96,61.71,105.2,64.22,100.85,64.22z"/>
	<path class="st1" d="M255.71,31.13c-3.55,0-6.89,0.94-9.78,2.57v-2.21h-10.28v43.19h10.28v-2.25h0.06v-21.3
		c0-5.36,4.36-9.72,9.72-9.72c5.36,0,9.72,4.36,9.72,9.72v23.43h10.27V51.13C275.71,40.1,266.74,31.13,255.71,31.13z"/>
	<g>
		<path class="st1" d="M301.16,74.54c-11.1,0-20.14-9.03-20.14-20.14V4.41h10.35V54.4c0,5.4,4.39,9.79,9.79,9.79
			c5.4,0,9.79-4.39,9.79-9.79h10.35C321.3,65.5,312.26,74.54,301.16,74.54z"/>
	</g>
	<g>
		<rect x="293.07" y="31.59" class="st1" width="13.57" height="10.36"/>
	</g>
	<g>
		<rect x="156.23" y="19.65" class="st1" width="10.36" height="10.36"/>
	</g>
	<g>
		<g>
			<path class="st2" d="M208.88,41.67c-4.58,0-8.52,2.8-10.21,6.77h20.42C217.4,44.46,213.46,41.67,208.88,41.67z"/>
		</g>
		<g>
			<path class="st2" d="M218.43,58.36c0.39-0.67,0.7-1.39,0.95-2.13h-6.99L218.43,58.36z"/>
		</g>
		<g>
			<path class="st1" d="M229.92,48.44c0.29,1.39,0.44,2.84,0.44,4.31"/>
		</g>
		<path class="st1" d="M219.38,56.23h10.97v-3.47c0-1.48-0.15-2.92-0.44-4.31c-2-9.78-10.68-17.16-21.04-17.16
			c-11.84,0-21.48,9.63-21.48,21.48s9.63,21.48,21.48,21.48c8.59,0,16.02-5.07,19.45-12.38l-9.89-3.5
			c-1.93,3.27-5.49,5.48-9.56,5.48c-4.9,0-9.06-3.2-10.52-7.61h14.04H219.38z M198.67,48.44c1.69-3.98,5.63-6.77,10.21-6.77
			s8.52,2.8,10.21,6.77l0,0H198.67L198.67,48.44z"/>
	</g>
	<g>
		<g>
			<path class="st1" d="M151.43,61.07c-1.78,1.87-4.29,3.04-7.07,3.04c-5.4,0-9.79-4.39-9.79-9.79V4.32h-10.35v49.99
				c0,11.1,9.03,20.14,20.14,20.14c4.51,0,8.66-1.5,12.02-4.01L151.43,61.07z"/>
		</g>
	</g>
	<g>
		<g>
			<path class="st1" d="M183.51,61.07c-1.78,1.87-4.29,3.04-7.07,3.04c-5.4,0-9.79-4.39-9.79-9.79l-0.06-22.62h-10.35l0.06,22.62
				c0,11.1,9.03,20.14,20.14,20.14c4.51,0,8.66-1.5,12.02-4.01L183.51,61.07z"/>
		</g>
	</g>
</g>
</svg>
